<?xml version="1.0" encoding="UTF-8"?> <svg xmlns="http://www.w3.org/2000/svg" xmlns:xlink="http://www.w3.org/1999/xlink" width="260.4" height="73.7" viewBox="0 0 260.4 73.7"><defs><linearGradient id="a" x1="41.29" y1="64.48" x2="136.76" y2="49.62" gradientUnits="userSpaceOnUse"><stop offset="0" stop-color="#fff"></stop><stop offset="0.53" stop-color="#b61f25"></stop><stop offset="0.68" stop-color="#aa1c23"></stop><stop offset="0.94" stop-color="#89121e"></stop><stop offset="1" stop-color="#80101d"></stop></linearGradient><radialGradient id="b" cx="144.75" cy="28.83" r="19.04" gradientUnits="userSpaceOnUse"><stop offset="0" stop-color="#fff"></stop><stop offset="0.14" stop-color="#e5aeb0"></stop><stop offset="0.28" stop-color="#cc6266"></stop><stop offset="0.38" stop-color="#bc3237"></stop><stop offset="0.43" stop-color="#b61f25"></stop><stop offset="0.61" stop-color="#b21e25"></stop><stop offset="0.78" stop-color="#a71d24"></stop><stop offset="0.94" stop-color="#941923"></stop><stop offset="1" stop-color="#8b1823"></stop></radialGradient></defs><title>Recurso 158</title><g><g><path d="M146.6,61.9l.2-.8h4.8l-.2.8h-2l-1.5,6.9h-.8l1.5-6.9Z" fill="#707070"></path><path d="M153.4,66.9h.8a2.6,2.6,0,0,1-.7,1.4,2,2,0,0,1-1.4.6q-1.4,0-1.4-1.6a7,7,0,0,1,.2-1.4,5.8,5.8,0,0,1,.8-1.9,2,2,0,0,1,1.7-1,1.2,1.2,0,0,1,1.4,1.4,13,13,0,0,1-.2,1.7h-2.8a11.2,11.2,0,0,0-.2,1.4c0,.6.3.9.8.9a1.1,1.1,0,0,0,.9-.4A1.9,1.9,0,0,0,153.4,66.9Zm-1.6-1.5h1.9a8.2,8.2,0,0,0,.1-.9c0-.5-.2-.8-.7-.8a1.1,1.1,0,0,0-1,.6A4.8,4.8,0,0,0,151.8,65.4Z" fill="#707070"></path><path d="M157.6,63.6c-.5,0-.9.3-1.2,1a9,9,0,0,0-.4,1.6,5.1,5.1,0,0,0-.1,1.1c0,.7.3,1,.8,1a1,1,0,0,0,.9-.5,3,3,0,0,0,.4-1h.8q-.5,2.1-2.2,2.1a1.4,1.4,0,0,1-1.5-1.6,6.5,6.5,0,0,1,.2-1.4,5.7,5.7,0,0,1,.8-2.1,2.1,2.1,0,0,1,1.8-1,1.3,1.3,0,0,1,1,.4,1.4,1.4,0,0,1,.3,1,2.7,2.7,0,0,1-.1.6h-.8a2.6,2.6,0,0,0,.1-.5C158.3,63.9,158.1,63.6,157.6,63.6Z" fill="#707070"></path><path d="M161.1,63.1v.6h0a2.3,2.3,0,0,1,1.6-.8c.8,0,1.1.3,1.1,1a2.2,2.2,0,0,1-.1.5l-.9,4.4h-.8l.9-4.2a2.4,2.4,0,0,0,0-.4c0-.4-.2-.6-.7-.6a1.4,1.4,0,0,0-.9.3,1.7,1.7,0,0,0-.6,1l-.8,3.8h-.8l1.2-5.7Z" fill="#707070"></path><path d="M168.5,65.8a5.3,5.3,0,0,1-1.1,2.5,2.1,2.1,0,0,1-1.6.7c-1,0-1.5-.6-1.5-1.7a7.2,7.2,0,0,1,.2-1.5q.6-2.8,2.6-2.8t1.6,1.7A4.9,4.9,0,0,1,168.5,65.8Zm-.9.3a6.7,6.7,0,0,0,.2-1.3c0-.7-.3-1.1-.9-1.1a1.2,1.2,0,0,0-1,.5,4.8,4.8,0,0,0-.7,1.8,5.8,5.8,0,0,0-.2,1.2c0,.7.3,1.1.9,1.1a1.3,1.3,0,0,0,1.1-.6A4.9,4.9,0,0,0,167.6,66Z" fill="#707070"></path><path d="M169.6,68.8h-.8l1.6-7.7h.8Z" fill="#707070"></path><path d="M175.4,65.8a5.2,5.2,0,0,1-1.1,2.5,2.1,2.1,0,0,1-1.6.7c-1,0-1.5-.6-1.5-1.7a7,7,0,0,1,.2-1.5q.6-2.8,2.6-2.8c1,0,1.6.6,1.6,1.7A5,5,0,0,1,175.4,65.8Zm-.9.3a6.3,6.3,0,0,0,.2-1.3c0-.7-.3-1.1-.9-1.1a1.2,1.2,0,0,0-1,.5,4.9,4.9,0,0,0-.7,1.8,5.5,5.5,0,0,0-.2,1.2c0,.7.3,1.1.9,1.1a1.3,1.3,0,0,0,1.1-.6A4.8,4.8,0,0,0,174.5,66Z" fill="#707070"></path><path d="M179.6,63.8v-.6h.8l-1.1,5a4.2,4.2,0,0,1-.8,1.8,2.2,2.2,0,0,1-1.7.8c-1,0-1.5-.5-1.4-1.4h.8c0,.5.2.7.7.7a1.3,1.3,0,0,0,1.2-.7,6.5,6.5,0,0,0,.4-1.2h0a1.8,1.8,0,0,1-1.4.8q-1.4,0-1.3-1.6a7.1,7.1,0,0,1,.2-1.4,5.5,5.5,0,0,1,.7-1.9,2,2,0,0,1,1.7-1,1,1,0,0,1,1.1.8Zm-1.1-.1q-1.1,0-1.6,2.3a6.8,6.8,0,0,0-.2,1.3c0,.7.2,1,.7,1a1.4,1.4,0,0,0,1.3-.9,6.9,6.9,0,0,0,.5-1.6,5.1,5.1,0,0,0,.1-1.1C179.3,64,179,63.6,178.5,63.6Z" fill="#707070"></path><path d="M181.4,68.8h-.8l1.2-5.7h.8Zm.3-6.4,1.2-1.4H184l-1.6,1.4Z" fill="#707070"></path><path d="M186.2,68.2v.6h-.8c-.1-.1-.2-.2-.2-.5V68h0a2,2,0,0,1-.6.7l-.8.3c-.8,0-1.2-.3-1.2-1a3.6,3.6,0,0,1,.1-.7,1.8,1.8,0,0,1,1.1-1.4l1.9-.7a1.1,1.1,0,0,0,.3-.7v-.3c0-.4-.3-.6-.8-.6a.9.9,0,0,0-.7.3,1.6,1.6,0,0,0-.3.7h-.7a1.9,1.9,0,0,1,2-1.7c.9,0,1.3.3,1.3,1a3,3,0,0,1-.1.5l-.7,3.3c0,.2,0,.4.1.4Zm-1.1-1.1.3-1.4-1.4.6a1.2,1.2,0,0,0-.6.6,1.9,1.9,0,0,0-.2.8c0,.4.2.5.6.5l.7-.2A1.5,1.5,0,0,0,185.1,67.1Z" fill="#707070"></path><path d="M193.1,63.7l.5-2.6h.8l-1.6,7.7H192l.2-.7h0l-.7.7-.9.2c-.8,0-1.2-.5-1.2-1.5a11,11,0,0,1,.2-1.5,5,5,0,0,1,.8-2.1,1.8,1.8,0,0,1,1.5-.9,1.3,1.3,0,0,1,1.2.7Zm-.6,2.9.2-.7a6.2,6.2,0,0,0,.2-1.2c0-.7-.3-1-.8-1s-1.3.8-1.6,2.3a7.1,7.1,0,0,0-.2,1.4q0,1,.8,1a1.2,1.2,0,0,0,1-.6A3.1,3.1,0,0,0,192.4,66.6Z" fill="#707070"></path><path d="M196.9,66.9h.8a2.6,2.6,0,0,1-.7,1.4,2,2,0,0,1-1.5.6q-1.4,0-1.4-1.6a6.5,6.5,0,0,1,.2-1.4,5.7,5.7,0,0,1,.8-1.9,2,2,0,0,1,1.7-1,1.2,1.2,0,0,1,1.4,1.4,12.7,12.7,0,0,1-.2,1.7h-2.8a11.9,11.9,0,0,0-.2,1.4c0,.6.3.9.8.9a1.1,1.1,0,0,0,.9-.4A1.9,1.9,0,0,0,196.9,66.9Zm-1.6-1.5h1.9a7.4,7.4,0,0,0,.1-.9c0-.5-.2-.8-.7-.8a1.1,1.1,0,0,0-1,.6A5,5,0,0,0,195.3,65.4Z" fill="#707070"></path><path d="M199.1,68.8h-.8l1.6-7.7h.8Z" fill="#707070"></path><path d="M204.3,65l-.8,3.8h-.8l1.2-5.7h.8l-.2.7h0a1.9,1.9,0,0,1,1.5-.9,1.1,1.1,0,0,1,1.2.9,2.3,2.3,0,0,1,1.7-.9,1.2,1.2,0,0,1,1,.4.9.9,0,0,1,.2.6,4.2,4.2,0,0,1-.1.8l-.9,4.1h-.8l.9-4.2a2,2,0,0,0,0-.4c0-.4-.2-.6-.7-.6a1.3,1.3,0,0,0-.8.3,1.6,1.6,0,0,0-.6,1l-.8,3.8h-.8l.9-4.2a2.6,2.6,0,0,0,0-.4c0-.4-.2-.6-.7-.6a1.4,1.4,0,0,0-.9.3A1.7,1.7,0,0,0,204.3,65Z" fill="#707070"></path><path d="M214,68.2v.6H213c-.1-.1-.2-.2-.2-.5V68h0a2,2,0,0,1-.6.7l-.8.3q-1.2,0-1.2-1a3,3,0,0,1,.1-.7,1.8,1.8,0,0,1,1.1-1.4l1.9-.7a1.1,1.1,0,0,0,.3-.7,1.6,1.6,0,0,0,0-.3c0-.4-.3-.6-.8-.6a.9.9,0,0,0-.7.3,1.7,1.7,0,0,0-.3.7H211a1.9,1.9,0,0,1,2-1.7c.9,0,1.3.3,1.3,1a3.1,3.1,0,0,1-.1.5l-.7,3.3c0,.2,0,.4.1.4Zm-1.1-1.1.3-1.4-1.4.6a1.2,1.2,0,0,0-.6.6,1.8,1.8,0,0,0-.2.8c0,.4.2.5.6.5l.7-.2A1.5,1.5,0,0,0,212.9,67.1Z" fill="#707070"></path><path d="M216.6,63.1v.6h0a2.3,2.3,0,0,1,1.6-.8c.8,0,1.1.3,1.1,1a1.9,1.9,0,0,1-.1.5l-.9,4.4h-.8l.9-4.2a2.2,2.2,0,0,0,0-.4c0-.4-.2-.6-.7-.6a1.4,1.4,0,0,0-.9.3,1.6,1.6,0,0,0-.6,1l-.8,3.8h-.8l1.2-5.7Zm2.7-2h.5a1.8,1.8,0,0,1-.5.8,1.2,1.2,0,0,1-.8.3l-.7-.2-.7-.2h-.3l-.2.3h-.5a1.7,1.7,0,0,1,.5-.8,1.1,1.1,0,0,1,.8-.3l.7.2.7.2h.3Z" fill="#707070"></path><path d="M223.1,68.2v.6h-.8c-.1-.1-.2-.2-.2-.5V68h0a1.9,1.9,0,0,1-.6.7l-.8.3q-1.2,0-1.2-1a3.6,3.6,0,0,1,.1-.7,1.8,1.8,0,0,1,1.1-1.4l1.9-.7a1.1,1.1,0,0,0,.3-.7v-.3c0-.4-.3-.6-.8-.6a.9.9,0,0,0-.7.3,1.7,1.7,0,0,0-.3.7h-.7a1.9,1.9,0,0,1,2-1.7c.9,0,1.3.3,1.3,1a2.8,2.8,0,0,1-.1.5l-.7,3.3c0,.2,0,.4.1.4ZM222,67.1l.3-1.4-1.4.6a1.2,1.2,0,0,0-.6.6,1.8,1.8,0,0,0-.2.8c0,.4.2.5.6.5l.7-.2A1.5,1.5,0,0,0,222,67.1Z" fill="#707070"></path><path d="M225.8,63.1v.6h0a2.3,2.3,0,0,1,1.6-.8c.8,0,1.1.3,1.1,1a2.5,2.5,0,0,1,0,.5l-.9,4.4h-.8l.9-4.2a2,2,0,0,0,0-.4c0-.4-.2-.6-.7-.6a1.4,1.4,0,0,0-.9.3,1.6,1.6,0,0,0-.6,1l-.8,3.8h-.8l1.2-5.7Z" fill="#707070"></path><path d="M232.3,68.2v.6h-.8a.5.5,0,0,1-.2-.5V68h0l-.6.7-.8.3c-.8,0-1.2-.3-1.2-1a3.4,3.4,0,0,1,.1-.7,1.8,1.8,0,0,1,1.1-1.4l1.9-.7a1.1,1.1,0,0,0,.3-.7,1.5,1.5,0,0,0,0-.3c0-.4-.3-.6-.8-.6a.9.9,0,0,0-.7.3,1.5,1.5,0,0,0-.3.7h-.7a1.9,1.9,0,0,1,2-1.7c.9,0,1.3.3,1.3,1a3,3,0,0,1-.1.5l-.7,3.3c0,.2,0,.4.1.4Zm-1.1-1.1.3-1.4-1.4.6a1.2,1.2,0,0,0-.6.6,1.9,1.9,0,0,0-.2.8c0,.4.2.5.6.5l.7-.2A1.5,1.5,0,0,0,231.2,67.1Z" fill="#707070"></path><path d="M233.5,68.8H233l.2-1h.9l-.3,1.2a1.8,1.8,0,0,1-.7,1.1l-.4.2v-.5h.3A1.6,1.6,0,0,0,233.5,68.8Z" fill="#707070"></path><path d="M239.1,65l-.8,3.8h-.8l1.6-7.7h.8l-.5,2.6h0A2.2,2.2,0,0,1,241,63c.8,0,1.1.3,1.1,1a2.2,2.2,0,0,1,0,.5l-.9,4.4h-.8l.9-4.2a2.2,2.2,0,0,0,0-.4c0-.4-.2-.6-.7-.6a1.4,1.4,0,0,0-.9.3A1.7,1.7,0,0,0,239.1,65Z" fill="#707070"></path><path d="M246.9,65.8a5.3,5.3,0,0,1-1.1,2.5,2.1,2.1,0,0,1-1.6.7c-1,0-1.5-.6-1.5-1.7a7.4,7.4,0,0,1,.2-1.5q.6-2.8,2.6-2.8t1.6,1.7A4.9,4.9,0,0,1,246.9,65.8Zm-.9.3a6.5,6.5,0,0,0,.2-1.3c0-.7-.3-1.1-.9-1.1a1.2,1.2,0,0,0-1,.5,5,5,0,0,0-.7,1.8,5.5,5.5,0,0,0-.2,1.2q0,1.1.9,1.1a1.3,1.3,0,0,0,1.1-.6A4.9,4.9,0,0,0,246,66Z" fill="#707070"></path><path d="M248.3,68.9l-.6-5.8h.8l.2,4.9h0l2.4-4.9h.8l-2.8,5.4-.8,1.5a1.8,1.8,0,0,1-1.5.7h-.6v-.7h.6a1,1,0,0,0,.8-.3Z" fill="#707070"></path><path d="M252.5,68.8h-.9l.2-1h.9Z" fill="#707070"></path></g><g><path d="M158,18.8C156.3,5.2,136.3-2.8,113.3.9,101.7,2.8,91.6,7.3,84.6,13a58.1,58.1,0,0,1,23.3-8.9C128.8.7,146.9,8,148.5,20.3a13.9,13.9,0,0,1-.1,3.9c3.2-.4,6.3-.7,9.4-.8A15.3,15.3,0,0,0,158,18.8Z" fill="#707070"></path><g><path d="M21.4,16.2H18.2L13.4,35.1h3.3c7.6,0,11.8-.1,14.1-9.3s-1.8-9.6-9.4-9.5M0,53.9,11.4,9.1H28.1c10.1,0,14.6,6,11.9,16.8-1.5,5.9-5.9,16.2-20.7,16.2H11.6l-3,11.8Z" fill="#707070"></path><path d="M74.5,20.9l-8.4,33H49.7c-9.8,0-12.7-3.9-10.6-12.1l5.3-20.9h8.6L47.9,41.2c-.8,3.1-1,5.5,4.2,5.5h7.1l6.5-25.8Z" fill="#707070"></path><path d="M69.7,53.9l8.3-33H94.4c9.7,0,13,3.2,10.8,12.1L99.8,53.9H91l5-19.8c1.2-4.7.9-5.9-4.2-5.9h-7L78.3,53.9Z" fill="#707070"></path><path d="M106.4,27.5l1.7-6.6h6.1l3-12h8.7l-3,12h23l-9.2,6.6H121.2l-3.6,14.3c-1.4,5.5.5,5.2,7.1,5.2h.9l-1.7,6.9h-8c-6.6,0-9.1-3.9-7.5-10.3l4.1-16.2Z" fill="#707070"></path><path d="M164.8,53.9l8.4-33h16.3c9.7,0,13,3.2,10.8,12.1L195,53.9h-8.8l5-19.8c1.2-4.7.9-5.9-4.2-5.9h-7l-6.5,25.7Z" fill="#707070"></path><g><path d="M226.7,53.9H214c-13.8,0-14.4-9.1-12.5-16.5s8.1-16.5,20.8-16.5h12.7l-1.7,6.8H221.8c-5.1,0-8,.8-9.7,6.3h19.7L230,41H210.4c-1,4.9,0,6.1,6.5,6.1h11.6Z" fill="#707070"></path><path d="M232,27.8l1.7-6.8h8.6l3.1-12h8.7l-3.1,12h9.3l-1.7,6.6h-9.3L246,40.9c-1.4,5.5.2,6.5,6.8,6.5h.9l-1.7,6.6h-8c-6.6,0-9.1-3.9-7.5-10.3l4-15.9Z" fill="#707070"></path></g></g><path d="M91.5,70.2C78,72.5,65.3,71.7,55.1,68.4c12.1,5.1,28.2,6.8,45.4,3.9,30.4-5.2,54.1-23.2,57.4-42.1-4.7.3-9.3.7-14.1,1.3C141.1,48.9,119.4,65.4,91.5,70.2Z" fill="url(#a)"></path><path d="M166.8,37.2c-1.9,10.1-11.9,18.3-22.3,18.3s-17.2-8.2-15.3-18.3,11.9-18.3,22.3-18.3,17.2,8.2,15.3,18.3" fill="url(#b)"></path></g></g></svg> 